<?xml version="1.0" encoding="utf-8"?>
<!-- Generator: Adobe Illustrator 21.0.0, SVG Export Plug-In . SVG Version: 6.00 Build 0)  -->
<svg version="1.1" id="Ebene_1" xmlns="http://www.w3.org/2000/svg" xmlns:xlink="http://www.w3.org/1999/xlink" x="0px" y="0px"
	 width="153.3px" height="86.4px" viewBox="0 0 153.3 86.4" style="enable-background:new 0 0 153.3 86.4;" xml:space="preserve">
<style type="text/css">
	.st0{fill:#FFEE81;}
</style>
<g id="Logo-2" transform="translate(813.000000, 77.000000)">
	<g>
		<path class="st0" d="M-721.9-63.4h-9.3c-0.3,0-0.5,0.2-0.5,0.5s0.2,0.5,0.5,0.5h9.3c0.3,0,0.5-0.2,0.5-0.5S-721.6-63.4-721.9-63.4
			z"/>
		<path class="st0" d="M-744.6-62.4h10.4c0.3,0,0.5-0.2,0.5-0.5s-0.2-0.5-0.5-0.5h-10.4c-0.3,0-0.5,0.2-0.5,0.5
			C-745.1-62.6-744.9-62.4-744.6-62.4z"/>
		<path class="st0" d="M-750.8-62.4h2.7c0.3,0,0.5-0.2,0.5-0.5s-0.2-0.5-0.5-0.5h-2.7c-0.3,0-0.5,0.2-0.5,0.5
			C-751.3-62.6-751.1-62.4-750.8-62.4z"/>
		<path class="st0" d="M-721.9-59.9h-15.8c-0.3,0-0.5,0.2-0.5,0.5s0.2,0.5,0.5,0.5h15.8c0.3,0,0.5-0.2,0.5-0.5
			S-721.6-59.9-721.9-59.9z"/>
		<path class="st0" d="M-740.8-59.9h-10c-0.3,0-0.5,0.2-0.5,0.5s0.2,0.5,0.5,0.5h10c0.3,0,0.5-0.2,0.5-0.5S-740.5-59.9-740.8-59.9z"
			/>
		<path class="st0" d="M-713.8-39.5c-0.2-0.2-0.5-0.4-0.8-0.4s-0.7,0.1-1.1,0.5c-1.1,1.2-2,1.7-3,1.7c-0.8,0-1.6-0.4-2.5-1.1
			c1.1-5.2,2-11.7,2.5-17.8c0.3-3.5,0.4-6.8,0.4-9.6l0,0l0,0c0-4.9-7.9-8.8-18.1-8.8c-10.1,0-18.1,3.8-18.1,8.8l0,0l0,0
			c0,2.8,0.1,6,0.4,9.6c0.5,6.2,1.4,12.6,2.5,17.8c-0.9,0.7-1.7,1.1-2.5,1.1c-0.9,0-1.9-0.6-3-1.7c-0.4-0.5-0.8-0.5-1.1-0.5
			s-0.6,0.1-0.8,0.4c-0.2,0.2-0.4,0.5-0.4,1.1c0.1,1.9,1,7.9,9.4,7.9c0.2,0,0.3,0,0.5,0c2,7.6,3.1,18,3.1,18.1c0,0.5,0.5,0.9,1,0.9
			h18.1c0.5,0,0.9-0.4,1-0.9c0-0.1,1-10.5,3.1-18.1c0.2,0,0.3,0,0.5,0c8.3,0,9.3-6,9.4-7.9C-713.4-38.9-713.6-39.3-713.8-39.5z
			 M-752.5-65.1h32.4c0,2.3-0.1,4.8-0.4,7.6h-31.6C-752.4-60.3-752.5-62.8-752.5-65.1z M-736.4-72.9c8.8,0,14.9,2.9,16,5.9h-32
			C-751.2-70-745.1-72.9-736.4-72.9z M-720.7-55.6c-0.5,5.3-1.2,10.8-2.1,15.4c-1.1-1.2-2.2-2.7-3.5-4.4c-1.6-2.2-3.5-3.4-5.5-3.4
			c-2.1,0-3.7,1.3-4.6,2.1c-0.9-0.9-2.6-2.1-4.6-2.1s-3.8,1.1-5.5,3.4c-1.3,1.7-2.4,3.2-3.5,4.4c-0.9-4.6-1.6-10.1-2.1-15.3h31.4
			V-55.6z M-728.2-13.5h-16.3c-0.3-2.6-1.3-10.7-3-17.2c6-0.8,9.6-4.5,11.1-6.5c1.5,2,5.1,5.7,11.1,6.5
			C-726.9-24.2-727.9-16.1-728.2-13.5z"/>
	</g>
	<path d="M-661.9-26.6c-0.5-0.4-1.3-0.2-1.7,0.3c-0.6,0.9-1.2,1.5-1.7,1.4c-0.6,0-1.2-0.9-1.4-1.3c-0.2-0.5-0.8-0.7-1.3-0.6
		s-0.9,0.5-1,1.1c-0.7,8.5-3.9,10.3-4.9,10.7c-0.9,0.3-1.7,0.1-2-0.2c-0.1-0.1-0.2-0.3-0.1-0.7c0.2-0.5,0.4-1,0.6-1.4
		c0.3-0.6,0.5-1.2,0.8-1.9c0.5-1.2,0.8-2.2,1.5-4.3l0.1-0.2c0.2-0.6-0.1-1.3-0.8-1.5c-0.6-0.2-1.3,0.1-1.5,0.8l-0.1,0.2
		c-1,3-1.2,3.8-2.2,6c-1.3,2.8-3,3.8-4.1,3.5c-0.6-0.2-1-0.7-0.8-1.5c0.1-0.5,0.2-1.1,0.4-1.6l0,0c0.3-0.9,0.7-1.8,1.2-2.8
		c0.8-1.7,1.6-3.5,1.8-5.5c0.1-0.7-0.4-1.2-1.1-1.3c-0.7-0.1-1.2,0.4-1.3,1.1c-0.2,1.6-0.9,3.1-1.6,4.7c-0.4,0.9-0.8,1.8-1.2,2.8
		c-2.5,3.9-5.5,4.8-7.3,4.5c-1.1-0.2-1.7-1.1-2-1.7c-0.2-0.3-0.3-0.7-0.3-1.1c3.4-0.3,8.3-1.9,8.3-6.5c0-1.8-0.9-3.2-2.5-3.6
		c-2.4-0.6-5.5,1.2-7.1,4.3c-0.7,1.4-1.1,2.8-1.2,4.3c-0.1,0.1-0.2,0.1-0.2,0.2c-2.7,3.7-4.4,4-4.8,3.8c-0.2-0.1-0.3-0.5-0.2-0.9
		c0.5-1.2,1.2-3.1,1.8-4.6c0.4-1.1,0.8-2.1,0.9-2.3c0,0,0-0.1,0.1-0.2c0.3-0.5,0.9-1.7,0.2-2.9c-0.7-1.2-2.4-1.4-3.6-1.4
		c-1.4,0-2.4-0.3-2.9-0.8c-0.4-0.4-0.5-1-0.4-1.9c0-0.7-0.4-1.2-1.1-1.3c-0.7,0-1.2,0.4-1.3,1.1c-0.1,1.6,0.2,2.8,1.1,3.7
		c0.4,0.4,0.8,0.7,1.4,1c-3,10.1-9.1,11.1-10.5,10.8c-1.1-0.2-1.7-1.1-2-1.7c-0.7-1.6-0.6-3.9,0.4-5.8c1.3-2.4,3.5-3.4,4.5-3.1
		c0.2,0,0.7,0.2,0.7,1.3c0,0.6-0.1,1.1-0.4,1.5c-0.3,0.6-0.1,1.3,0.5,1.6c0.6,0.3,1.3,0.1,1.6-0.5c0.4-0.8,0.7-1.7,0.7-2.7
		c0-1.8-0.9-3.2-2.5-3.6c-2.4-0.6-5.5,1.2-7.1,4.3c-0.7,1.3-1.1,2.7-1.2,4.1c-2.8,3.7-4.4,4.1-4.8,3.8c-0.3-0.2-0.5-1.1-0.2-1.9
		c0.3-0.7,0.6-1.7,0.9-2.8c0.6-1.8,1.2-3.9,2.1-6.1c0.2-0.6-0.1-1.3-0.7-1.5c-0.6-0.2-1.3,0.1-1.5,0.7c-0.1,0.4-0.3,0.7-0.4,1.1
		c-0.4-0.5-0.8-0.9-1.3-1.2c-0.8-0.5-3.1-1.5-5.9,1c-1.8,1.6-2.8,4.5-2.9,6.9c-1,1.8-2.2,2.8-3.4,3c-0.3,0-0.6,0-0.9-0.1
		c1.2-1.9,2.3-4.9,2.7-9.4c0.1-0.7-0.4-1.2-1.1-1.3c-0.7,0-1.2,0.4-1.3,1.1c-0.7,8.5-3.9,10.3-4.9,10.7c-0.9,0.3-1.7,0.1-2-0.2
		c-0.1-0.1-0.2-0.3-0.1-0.7c0.2-0.5,0.4-1,0.6-1.4c0.3-0.6,0.5-1.2,0.8-1.9c0.5-1.2,0.8-2.2,1.5-4.4l0.1-0.3
		c0.2-0.6-0.1-1.3-0.8-1.5c-0.6-0.2-1.3,0.1-1.5,0.8l-0.1,0.3c-1,3-1.2,3.8-2.2,6c-1.3,2.8-3,3.8-4.1,3.5c-0.6-0.2-1-0.7-0.8-1.5
		c0.2-1.5,0.9-2.9,1.6-4.4c0.8-1.7,1.6-3.5,1.8-5.5c0.1-0.7-0.4-1.2-1.1-1.3c-0.7-0.1-1.2,0.4-1.3,1.1c-0.2,1.6-0.9,3.1-1.6,4.7
		c-0.4,1-0.9,1.9-1.2,2.9c-0.1,0.1-0.1,0.1-0.2,0.2c-2.7,3.7-4.3,4-4.8,3.8c-0.2-0.1-0.3-0.5-0.2-0.9c0.5-1.2,1.2-3.1,1.8-4.6
		c0.4-1.1,0.8-2.1,0.9-2.4c0,0,0-0.1,0.1-0.2c0.3-0.5,0.9-1.7,0.2-2.9c-0.7-1.2-2.4-1.4-3.6-1.4c-1.4,0-2.4-0.3-2.9-0.8
		c-0.4-0.4-0.5-1-0.4-1.9c0-0.7-0.4-1.2-1.1-1.3c-0.7,0-1.2,0.4-1.3,1.1c-0.1,1.6,0.2,2.8,1.1,3.7c0.4,0.4,0.8,0.7,1.4,1
		c-3,10.1-9.1,11.1-10.5,10.8c-1.1-0.2-1.7-1.1-2-1.7c-0.2-0.3-0.3-0.7-0.3-1.1c3.4-0.3,8.3-1.9,8.3-6.5c0-1.8-0.9-3.2-2.5-3.6
		c-2.4-0.6-5.5,1.2-7.1,4.3c-0.5,0.8-0.8,1.7-1,2.6c-2.7,6.3-5.2,7.5-6.2,7.2s-1.8-1.9-1.5-4.2c0.5-4-0.2-6.9-2.1-8.8
		c-0.2-0.2-0.4-0.4-0.7-0.6c3.1-0.9,4.7-2.6,6.1-4.1c1.5-1.6,2.7-2.9,5.5-3.1c0.7,0,1.2-0.6,1.1-1.3c0-0.7-0.6-1.2-1.3-1.1
		c-3.8,0.2-5.5,2.1-7.1,3.8c-1.7,1.8-3.2,3.5-7.4,3.8c1.4-4,3.5-9.2,6.3-12.5c0.4-0.4,0.4-1,0-1.5c-0.3-0.4-0.9-0.6-1.4-0.4
		c-1.7,0.8-3.8,1-6,1.3c-3,0.4-6,0.8-8.5,2.4c-3.5,2.3-3.7,5.5-2.5,7.6c1.2,2,4,3.2,6.7,1.7c0.6-0.3,0.8-1.1,0.4-1.6
		c-0.3-0.6-1.1-0.8-1.6-0.4c-1.4,0.8-2.8,0.2-3.4-0.8c-0.7-1.1-0.6-2.9,1.7-4.4c2-1.3,4.8-1.7,7.5-2c1.1-0.1,2.2-0.3,3.2-0.5
		c-2.5,4.2-4.4,9.4-5.5,12.8c-0.2,0.5-0.3,0.9-0.5,1.3c-0.1,0.4-0.3,0.9-0.5,1.5c-0.9,3-2.4,8.1-6.7,10.2c-1.9,1-3.6,1.1-4.7,0.3
		c-0.9-0.6-1.4-1.8-1.2-3.1c0.2-1.7,1.3-3.1,3.1-3.8c0.6-0.3,0.9-1,0.6-1.6c-0.3-0.6-1-0.9-1.6-0.6c-2.5,1.1-4.2,3.2-4.5,5.8
		c-0.2,2.1,0.6,4.2,2.3,5.3c0.6,0.4,1.7,0.9,3.2,0.9c1.1,0,2.4-0.3,4-1c5.2-2.6,7-8.5,7.9-11.7c0.2-0.5,0.3-1,0.4-1.3
		c0.1-0.3,0.2-0.6,0.3-0.9c0.8,0.1,2.1,0.3,3,1.3c1.3,1.3,1.8,3.6,1.4,6.8c-0.4,3.3,1,6.2,3.2,6.8c0.3,0.1,0.6,0.1,1,0.1
		c1.5,0,3.7-0.9,6.1-4.9c0.1,0.2,0.1,0.4,0.2,0.5c0.7,1.6,2,2.7,3.6,3.1c0.2,0,0.5,0.1,0.9,0.1c2.8,0,9.3-1.9,12.5-12.7
		c0.3,0,0.6,0,1,0c0.9,0,1.4,0.1,1.5,0.2c0,0.2-0.2,0.4-0.2,0.6c-0.1,0.1-0.1,0.2-0.1,0.3c-0.1,0.3-0.4,1.1-1,2.5
		c-0.6,1.5-1.3,3.4-1.8,4.6c-0.6,1.4,0,3.1,1.2,3.8c0.4,0.2,0.9,0.4,1.5,0.4c1.1,0,2.5-0.5,4.3-2.3c0.4,1,1.3,1.9,2.4,2.1
		c0.3,0.1,0.6,0.1,0.9,0.1c1.1,0,2.3-0.4,3.4-1.5c0.1,0.1,0.1,0.2,0.2,0.2c0.7,0.7,1.7,1.1,2.8,1.1c0.6,0,1.1-0.1,1.7-0.3
		c0.6-0.2,1.4-0.6,2.3-1.4c0.6,0.4,1.3,0.6,2.2,0.6c0.2,0,0.3,0,0.5,0c1-0.1,2.3-0.6,3.6-1.9c1.1,2.6,2.8,3,3.7,3l0,0
		c1.2,0,2.4-0.6,3.4-1.6c0.3,0.5,0.7,0.9,1.2,1.2c0.4,0.2,0.8,0.3,1.4,0.3c1.2,0,2.9-0.7,5-3.1c0.1,0.2,0.1,0.4,0.2,0.5
		c0.7,1.6,2,2.7,3.6,3.1c0.2,0,0.5,0.1,0.9,0.1c2.8,0,9.3-1.9,12.5-12.7c0.3,0,0.6,0,1,0c0.9,0,1.4,0.1,1.5,0.2
		c0,0.2-0.2,0.4-0.2,0.6c-0.1,0.1-0.1,0.2-0.1,0.3c-0.1,0.3-0.4,1.1-1,2.5c-0.6,1.5-1.3,3.4-1.8,4.6c-0.6,1.4,0,3.1,1.2,3.8
		c0.4,0.2,0.9,0.4,1.5,0.4c1.2,0,3-0.7,5.2-3.3c0.1,0.1,0.1,0.3,0.2,0.4c0.7,1.6,2,2.7,3.6,3.1c0.4,0.1,0.8,0.1,1.3,0.1
		c1.8,0,4-0.8,6.1-2.7c0.4,1.1,1.3,1.9,2.4,2.2c0.3,0.1,0.6,0.1,0.9,0.1c1.1,0,2.3-0.4,3.4-1.5c0.1,0.1,0.1,0.2,0.2,0.2
		c0.7,0.7,1.7,1.1,2.8,1.1c0.6,0,1.1-0.1,1.7-0.3c1.5-0.5,5-2.6,6.2-10.1c0.4,0.3,0.9,0.4,1.5,0.5c1.4,0.1,2.7-0.7,3.8-2.5
		C-661.2-25.5-661.3-26.3-661.9-26.6z M-775.7-21.9c1.2-2.1,3-3.1,4.1-3.1c0.1,0,0.2,0,0.3,0c0.2,0,0.7,0.2,0.7,1.3
		c0,3.1-3.9,3.9-5.9,4.1C-776.3-20.4-776.1-21.2-775.7-21.9z M-731.1-14.9L-731.1-14.9c-0.9,0-1.5-1.2-1.7-2
		c-0.1-0.4-0.2-0.9-0.2-1.5c0-0.1,0-0.2,0-0.2c0.1-1.8,0.8-4.2,2.2-5.4c1.1-1,2.1-1.3,3-0.8c1,0.7,1.6,2.3,1.4,2.8l0,0
		c-0.2,0.6-0.3,1.1-0.5,1.6c-0.2,0.7-0.4,1.3-0.6,1.8C-728.5-16.4-730.1-14.9-731.1-14.9z M-693-21.9c1.2-2.1,3-3.1,4.1-3.1
		c0.1,0,0.2,0,0.3,0c0.2,0,0.7,0.2,0.7,1.3c0,3.1-3.9,3.9-5.9,4.1C-693.6-20.4-693.4-21.2-693-21.9z"/>
	<g>
		<path d="M-769.7-0.6c-0.2-0.1-0.4-0.3-0.6-0.4c0.2-0.2,0.4-0.4,0.5-0.6c0.2-0.4,0.3-0.8,0.3-1.2c0-0.5-0.1-0.9-0.4-1.3
			c-0.3-0.4-0.6-0.7-1-0.9c-0.4-0.2-1-0.3-1.8-0.3h-2.1v9.6h2.8c1,0,1.7-0.3,2.3-0.8c0.6-0.6,0.9-1.2,0.9-2c0-0.4-0.1-0.8-0.2-1.1
			C-769.2,0-769.4-0.3-769.7-0.6z M-773.3,0h0.2c0.7,0,1.2,0,1.5,0.1c0.4,0.1,0.7,0.3,0.9,0.5s0.3,0.5,0.3,0.8s-0.1,0.5-0.2,0.7
			c-0.2,0.2-0.4,0.4-0.6,0.5c-0.3,0.1-0.7,0.2-1.3,0.2h-0.8L-773.3,0L-773.3,0z M-771.2-2.1c-0.1,0.2-0.3,0.3-0.6,0.4
			c-0.3,0.1-0.7,0.2-1.3,0.2h-0.2v-2.3h0.7c0.6,0,1,0.1,1.2,0.3c0.2,0.2,0.3,0.4,0.3,0.7C-771-2.5-771.1-2.3-771.2-2.1z"/>
		<polygon points="-765.1,4.3 -759.4,4.3 -759.4,2.8 -763.6,2.8 -763.6,-0.1 -759.4,-0.1 -759.4,-1.6 -763.6,-1.6 -763.6,-3.8 
			-759.3,-3.8 -759.3,-5.3 -765.1,-5.3 		"/>
		<polygon points="-755.9,4.3 -750.2,4.3 -750.2,2.8 -754.4,2.8 -754.4,-0.1 -750.2,-0.1 -750.2,-1.6 -754.4,-1.6 -754.4,-3.8 
			-750.1,-3.8 -750.1,-5.3 -755.9,-5.3 		"/>
		<path d="M-741.9-0.2c0.5-0.2,0.9-0.5,1.1-1c0.3-0.4,0.4-0.9,0.4-1.4c0-0.7-0.2-1.2-0.6-1.7c-0.4-0.5-0.9-0.7-1.5-0.9
			c-0.4-0.1-1.1-0.1-2.1-0.1h-2.1v9.6h1.5V0.1h0.1l3.2,4.2h1.9l-3.2-4.2C-742.7,0.1-742.3,0-741.9-0.2z M-743.9-1.3h-1.3v-2.5h1.3
			c0.7,0,1.1,0.1,1.2,0.1c0.2,0.1,0.4,0.2,0.5,0.4C-742-3-742-2.8-742-2.6c0,0.3-0.1,0.5-0.2,0.7c-0.1,0.2-0.3,0.3-0.5,0.4
			C-742.9-1.4-743.3-1.3-743.9-1.3z"/>
		<polygon points="-735.1,-5.3 -736.6,-5.3 -736.6,4.3 -731.7,4.3 -731.7,2.8 -735.1,2.8 		"/>
		<path d="M-723.8-5.5c-0.9,0-1.7,0.2-2.5,0.7c-0.8,0.4-1.4,1.1-1.8,1.8c-0.4,0.8-0.7,1.6-0.7,2.5c0,1.4,0.5,2.6,1.5,3.5
			c1,1,2.2,1.5,3.6,1.5c1.4,0,2.6-0.5,3.6-1.5s1.5-2.2,1.5-3.6s-0.5-2.6-1.5-3.6C-721.1-5-722.3-5.5-723.8-5.5z M-720.2-0.5
			c0,0.7-0.2,1.3-0.5,1.8s-0.7,1-1.3,1.3c-0.5,0.3-1.1,0.5-1.8,0.5c-1,0-1.8-0.3-2.5-1s-1-1.5-1-2.5c0-0.7,0.2-1.3,0.5-1.8
			s0.7-1,1.3-1.3c0.5-0.3,1.1-0.5,1.7-0.5c0.6,0,1.2,0.2,1.8,0.5s1,0.7,1.3,1.3C-720.4-1.7-720.2-1.1-720.2-0.5z"/>
		<polygon points="-711.4,1.2 -714.2,-5.3 -715.8,-5.3 -711.7,4.3 -711.1,4.3 -707,-5.3 -708.6,-5.3 		"/>
		<polygon points="-698,-3.8 -698,-5.3 -703.7,-5.3 -703.7,4.3 -698,4.3 -698,2.8 -702.2,2.8 -702.2,-0.1 -698,-0.1 -698,-1.6 
			-702.2,-1.6 -702.2,-3.8 		"/>
	</g>
</g>
</svg>
